<?xml version="1.0" encoding="utf-8"?>
<!-- Generator: Adobe Illustrator 16.0.0, SVG Export Plug-In . SVG Version: 6.00 Build 0)  -->
<!DOCTYPE svg PUBLIC "-//W3C//DTD SVG 1.1//EN" "http://www.w3.org/Graphics/SVG/1.1/DTD/svg11.dtd">
<svg version="1.1" id="圖層_1" xmlns="http://www.w3.org/2000/svg" xmlns:xlink="http://www.w3.org/1999/xlink" x="0px" y="0px"
	 width="100px" height="100px" viewBox="0 0 100 100" enable-background="new 0 0 100 100" xml:space="preserve">
<g>
	<circle fill="none" stroke="#E7C46E" stroke-width="2" stroke-miterlimit="10" cx="50.456" cy="50.013" r="45"/>
	<path fill="#E7C46E" d="M21.341,29.816c0,0-2.347,0.662-2.091,3.52c0,0,1.122-1.275,2.397-1.225
		c1.275,0.052,0.97,1.378,0.868,2.653c-0.102,1.275-0.046,2.695,2.145,2.596c0,0,0.593,0.807,0.27,4.002
		c-0.322,3.195-2.874,10.03,1.818,15.59c4.693,5.561,6.989,6.732,6.989,6.732s1.893,4.648,5.23,7.018c0,0,0.896,0.686,0,3.031
		c-0.896,2.346-1.864,5.102-2.885,5.305c-1.021,0.205-2.885-0.513-4.463,0c-1.579,0.515-2.907,1.378-2.677,1.658
		c0.229,0.282,1.428-0.586,2.205-0.65c0.778-0.063,0.727,0.379,0.421,0.707c-0.306,0.326-0.333,0.684,0.572,0.289
		c0.905-0.394,1.927-0.346,3.101-0.219c1.174,0.128,1.775,0.007,2.473-0.356c0.698-0.364,2.139,0.26,2.5,0.382
		c0.362,0.124,0.013-0.649-0.732-0.975c-0.747-0.324-0.772-0.76-0.542-1.269c0.229-0.51,1.027-1.583,1.419-1.557
		c0.392,0.026,1.82-0.534,1.846-0.968c0.026-0.435-1.429,0.024-1.581-0.308c-0.153-0.33,1.733-2.627,1.963-3.596
		c0.229-0.97-0.302-2.903-0.178-3.315c0.124-0.413,0.404-1.484,0.367-1.901c0,0,1.214-0.139,2.464,1.085
		c1.25,1.225,2.648,2.021,4.285,2.551c0,0,0.872,2.914,1.061,4.3c0.188,1.387-0.041,2.662-0.73,3.275
		c-0.688,0.611-1.785,1.708-3.545,1.888c-1.759,0.178-1.964,1.038-1.836,1.156c0.128,0.119,0.51-0.01,1.097-0.188
		c0.587-0.18,2.347-0.535,2.984-0.28c0,0-1.175,0.791-1.136,1.11c0.04,0.317,0.393-0.188,0.943-0.357
		c0.55-0.166,1.229,0.308,2.417-0.877c1.188-1.183,1.934-2.171,2.571-1.969c0.638,0.205,1.505,0.741,1.556,0.357
		c0.052-0.381-1.199-1.402-1.632-1.683c-0.434-0.281-0.893-0.943-0.867-1.708c0.025-0.767,1.149-1.252,1.366-1.902
		c0.215-0.648-0.753,0.091-1.06-0.164c-0.306-0.256-0.004-3.239-0.18-4.107c-0.177-0.866-0.882-2.82-0.882-2.82
		s1.288-0.923,1.774-1.767l-0.892-0.131c0,0,0.614-1.225,0.588-1.759c0,0,1.755-0.583,2.102-2.28c0,0,0.011,0.605,0.562,0.563
		c0.55-0.043,2.233-0.808,3.05-3.615c0,0,0.229,0.562,0.127,0.97c0,0,0.649-0.602,0.801-1.034c0,0,0.441,0.94,1.682,0.823
		c1.241-0.12,2.058-3.385,2.058-3.385s0.23,0.536,0.714-0.025c0,0-0.459,1.275,0.664,1.454c1.122,0.178,2.344-3.395,1.962-6.198
		c0,0,0.894,0.357,1.174-1.301c0,0-0.661,3.212,0,3.367c0.662,0.155,1.301-2.092,1.377-4.08c0,0,0.229,0.483,0.637,0.459
		c0.409-0.026,1.204-1.349,1.175-2.752c0,0,0.739,1.629,0.407,3.235c-0.332,1.607-0.459,2.143,0.229,2.271
		c0.688,0.127,2.55-2.552,2.55-4.745c0-2.194-0.944-5.712-0.944-5.712s1.633,1.86,2.245,1.962c0.612,0.104-0.765-4.334-0.765-4.334
		s3.851,2.524,5.228,7.981c1.377,5.459-1.806,11.914-0.954,13.021c0.852,1.109,4.366-4.904,4.219-9.602
		c-0.149-4.699-1.173-8.417-1.173-8.417s2.362,2.535,2.533,5.271c0.17,2.736,1.444,2.715,1.692,0.398
		c0.25-2.318,0.019-12.634-9.738-15.715c0,0,5.156,0.098,8.471,4.383c0,0-1.275-7.702-10.176-9.641c0,0,0.739-0.918-0.435-1.275
		c-1.173-0.357-10.201-2.144-16.934,0.611c-6.733,2.755-8.419,7.907-8.419,7.907s-0.707-1.331-0.811-2.654
		c0,0-1.846,2.355-2.044,7.294c-0.197,4.941,1.909,8.847,1.909,8.847s-3.833,1.599-6.326-0.906
		c-2.496-2.505-7.154-14.563-12.196-16.749c0,0,2.536,0.547,3.403-1.493c0,0,1.377-0.713,0.816-1.377c-0.56-0.663-1.836,0-1.836,0
		s1.326-1.632,0.358-1.989c-0.97-0.358-2.448,1.499-3.418,1.02c0,0,1.126-1.22,0.375-1.769c-0.752-0.547-2.007,1.927-2.645,1.287
		c-0.637-0.64-0.103-1.352-0.739-1.366c-0.636-0.017-1.123,1.695-1.632,1.695c-0.51,0-0.146-1.48-0.583-1.174
		c-0.437,0.307-0.488,1.685-1.508,1.785C21.341,26.092,19.25,27.624,21.341,29.816z"/>
	<circle fill="none" stroke="#E7C46E" stroke-miterlimit="10" cx="50.456" cy="50.013" r="40.667"/>
</g>
</svg>
