<?xml version="1.0" encoding="utf-8"?>
<!-- Generator: Adobe Illustrator 16.0.0, SVG Export Plug-In . SVG Version: 6.00 Build 0)  -->
<!DOCTYPE svg PUBLIC "-//W3C//DTD SVG 1.1//EN" "http://www.w3.org/Graphics/SVG/1.1/DTD/svg11.dtd">
<svg version="1.1" id="圖層_1" xmlns="http://www.w3.org/2000/svg" xmlns:xlink="http://www.w3.org/1999/xlink" x="0px" y="0px"
	 width="100px" height="100px" viewBox="0 0 100 100" enable-background="new 0 0 100 100" xml:space="preserve">
<g>
	<circle fill="none" stroke="#E7C46E" stroke-width="2" stroke-miterlimit="10" cx="50.456" cy="50" r="45"/>
	<circle fill="none" stroke="#E7C46E" stroke-miterlimit="10" cx="50.456" cy="50" r="40.667"/>
	<g>
		<path fill-rule="evenodd" clip-rule="evenodd" fill="#E7C46E" d="M52.003,84.453c-1.346,0-2.692,0-4.038,0
			c-1.019-0.131-2.04-0.246-3.056-0.393c-11.62-1.668-20.423-9.578-23.335-20.943c-1.446-5.646-1.456-11.336-0.732-17.084
			c0.239-1.895,2.145-2.855,3.583-1.48c0.409,0.393,0.461,0.162,0.541-0.232c0.203-1.01,0.413-2.018,0.671-3.014
			c1.771-6.822,4.722-13.043,9.482-18.313c2.747-3.039,5.968-5.404,9.922-6.672c1.177-0.379,2.396-0.531,3.598-0.775
			c0.897,0,1.795,0,2.692,0c0.149,0.041,0.296,0.102,0.448,0.117c1.985,0.195,3.859,0.781,5.644,1.648
			c4.313,2.094,7.579,5.369,10.279,9.252c3.727,5.357,6.057,11.303,7.287,17.689c0.122,0.635,0.265,0.568,0.662,0.217
			c0.633-0.561,1.376-0.748,2.183-0.412c0.78,0.326,1.142,0.959,1.233,1.779c0.102,0.912,0.25,1.82,0.334,2.734
			c0.469,5.107,0.292,10.182-1.179,15.123c-3.37,11.313-10.915,18.049-22.5,20.254C54.494,84.184,53.243,84.289,52.003,84.453z
			 M24.519,50.049c-0.023,0.066-0.06,0.125-0.063,0.184c-0.273,4.854,0.075,9.641,1.741,14.25
			c2.475,6.844,7.078,11.68,13.921,14.207c6.291,2.324,12.687,2.379,19.048,0.238c6.286-2.115,10.872-6.203,13.689-12.223
			c2.064-4.41,2.766-9.102,2.741-13.928c-0.005-0.908-0.001-1.818-0.001-2.748c-0.417,0.039-0.543,0.246-0.705,0.385
			c-1.65,1.418-3.29,2.846-4.94,4.264c-1.186,1.02-2.092,1.012-3.279-0.012c-2.344-2.021-4.69-4.039-7.02-6.076
			c-0.366-0.322-0.593-0.365-0.99-0.018c-2.323,2.045-4.671,4.063-7.018,6.08c-1.228,1.057-2.096,1.055-3.328-0.006
			c-2.277-1.961-4.563-3.912-6.81-5.908c-0.517-0.459-0.813-0.504-1.356-0.018c-2.241,2.002-4.533,3.945-6.809,5.908
			c-1.262,1.088-2.114,1.088-3.381-0.002c-1.631-1.406-3.256-2.818-4.89-4.221C24.911,50.27,24.79,50.055,24.519,50.049z
			 M28.499,47.676c-0.1,0.357,0.103,0.482,0.272,0.629c0.798,0.688,1.617,1.354,2.382,2.076c0.372,0.352,0.601,0.35,0.984,0.014
			c2.309-2.027,4.639-4.027,6.965-6.033c1.284-1.109,2.159-1.105,3.43-0.006c2.322,2.012,4.657,4.008,6.962,6.037
			c0.396,0.348,0.622,0.311,0.994-0.018c2.309-2.025,4.641-4.023,6.963-6.035c1.241-1.074,2.135-1.08,3.379-0.006
			c2.342,2.021,4.682,4.047,7.025,6.066c0.222,0.189,0.399,0.482,0.772,0.139c0.858-0.787,1.75-1.539,2.643-2.289
			c0.228-0.191,0.239-0.389,0.204-0.65c-0.909-6.744-3.118-13.006-6.99-18.629c-2.263-3.285-4.982-6.113-8.604-7.943
			c-2.869-1.447-5.868-1.891-8.998-1.055c-4.096,1.096-7.166,3.693-9.793,6.873c-3.195,3.867-5.377,8.287-6.895,13.047
			C29.377,42.461,28.807,45.082,28.499,47.676z"/>
		<path fill-rule="evenodd" clip-rule="evenodd" fill="#E7C46E" d="M52.984,22.129c0.66,0.084,1.427,0.465,2.176,0.857
			c3.137,1.645,5.484,4.146,7.504,6.992c2.451,3.451,4.121,7.275,5.36,11.299c0.338,1.1-0.166,2.158-1.168,2.531
			c-1.04,0.389-2.136-0.092-2.578-1.188c-0.51-1.266-0.855-2.592-1.385-3.854c-1.345-3.203-3.039-6.191-5.354-8.801
			c-1.503-1.693-3.213-3.117-5.368-3.932c-0.876-0.332-1.399-0.951-1.405-1.926C50.76,22.98,51.647,22.113,52.984,22.129z"/>
	</g>
</g>
</svg>
