<?xml version="1.0" encoding="utf-8"?>
<!-- Generator: Adobe Illustrator 16.0.0, SVG Export Plug-In . SVG Version: 6.00 Build 0)  -->
<!DOCTYPE svg PUBLIC "-//W3C//DTD SVG 1.1//EN" "http://www.w3.org/Graphics/SVG/1.1/DTD/svg11.dtd">
<svg version="1.1" id="圖層_1" xmlns="http://www.w3.org/2000/svg" xmlns:xlink="http://www.w3.org/1999/xlink" x="0px" y="0px"
	 width="100px" height="100px" viewBox="0 0 100 100" enable-background="new 0 0 100 100" xml:space="preserve">
<g>
	<circle fill="none" stroke="#E7C46E" stroke-width="2" stroke-miterlimit="10" cx="50.456" cy="50.013" r="45"/>
	<circle fill="none" stroke="#E7C46E" stroke-miterlimit="10" cx="50.456" cy="50.013" r="40.667"/>
	<path fill-rule="evenodd" clip-rule="evenodd" fill="#E7C46E" d="M50.928,81.572c0.021-0.273-0.042-0.529-0.143-0.785
		c-0.659-1.65-1.688-3.053-2.902-4.33c-0.058-0.061-0.131-0.109-0.201-0.154c-0.369-0.234-0.743-0.463-1.11-0.699
		c-0.139-0.092-0.287-0.158-0.448-0.178c-0.571-0.068-1.03-0.359-1.448-0.725c-0.1-0.09-0.188-0.115-0.303-0.057
		c-0.257,0.131-0.497,0.098-0.743-0.043c-0.238-0.135-0.504-0.221-0.722-0.396c-0.063-0.051-0.151-0.076-0.089-0.195
		c0.021-0.039-0.021-0.123-0.049-0.176c-0.219-0.396-0.472-0.77-0.793-1.094c-0.1-0.102-0.232-0.133-0.36-0.168
		c-0.388-0.105-0.629-0.389-0.854-0.691c-0.104-0.139-0.129-0.297-0.026-0.455c0.139-0.211,0.106-0.406-0.041-0.604
		c-0.173-0.234-0.311-0.492-0.497-0.713c-0.924-1.086-1.4-2.385-1.787-3.727c-0.066-0.232-0.141-0.455-0.269-0.662
		c-0.127-0.203-0.239-0.416-0.358-0.625c-0.193-0.34-0.195-0.344-0.538-0.162c-0.108,0.055-0.207,0.066-0.322,0.021
		c-0.243-0.092-0.495-0.166-0.736-0.264c-0.234-0.094-0.337-0.311-0.303-0.566c0.033-0.248,0.226-0.283,0.415-0.314
		c0.356-0.061,0.443-0.203,0.322-0.541c-0.029-0.08-0.066-0.156-0.086-0.24c-0.058-0.242-0.203-0.344-0.457-0.338
		c-0.309,0.006-0.426-0.145-0.375-0.441c0.12-0.717,0.241-1.434,0.4-2.145c0.083-0.365,0.213-0.715,0.366-1.059
		c0.029-0.064,0.063-0.127,0.134-0.154c0.184-0.072,0.21-0.199,0.188-0.389c-0.103-0.965-0.408-1.873-0.755-2.768
		c-0.319-0.824-0.59-1.662-0.798-2.521c-0.041-0.17-0.045-0.336,0.004-0.502c0.31-1.049,0.6-2.104,0.935-3.145
		c0.129-0.4,0.262-0.826,0.632-1.102c0.071-0.053,0.09-0.143,0.123-0.219c0.326-0.762,0.597-1.539,0.818-2.336
		c0.378-1.367,0.824-2.715,1.33-4.039c0.169-0.445,0.468-0.803,0.717-1.195c0.07-0.111,0.104-0.221,0.122-0.352
		c0.105-0.783,0.293-1.551,0.462-2.322c0.259-1.176,0.721-2.256,1.404-3.242c0.227-0.326,0.341-0.686,0.41-1.074
		c0.109-0.611,0.261-1.215,0.395-1.82c0.021-0.092,0.066-0.17,0.12-0.246c0.756-1.059,1.562-2.076,2.396-3.07
		c0.188-0.225,0.244-0.428,0.277-0.678c0.099-0.721,0.144-1.449,0.324-2.156c0.102-0.391,0.246-0.768,0.402-1.135
		c0.229-0.541,0.409-1.098,0.621-1.645c0.036-0.092,0.071-0.188,0.133-0.264c0.396-0.494,0.76-1.014,1.306-1.371
		c0.407-0.266,0.8-0.559,1.173-0.871c0.464-0.387,0.991-0.604,1.574-0.732c0.603-0.133,1.166-0.379,1.687-0.713
		c0.137-0.088,0.251-0.201,0.356-0.326c0.219-0.26,0.458-0.301,0.754-0.137c0.123,0.068,0.236,0.154,0.359,0.225
		c0.054,0.031,0.124,0.129,0.175,0.047c0.045-0.072-0.068-0.105-0.121-0.143c-0.23-0.164-0.467-0.32-0.699-0.48
		c-0.229-0.156-0.25-0.23-0.129-0.473c0.252-0.504,0.473-1.021,0.855-1.453c0.227-0.256,0.463-0.48,0.776-0.6
		c0.549-0.209,1.103-0.348,1.667-0.018c0.212,0.125,0.398,0.266,0.53,0.473c0.34,0.533,0.837,0.91,1.359,1.219
		c0.646,0.383,1.382,0.512,2.139,0.482c0.472-0.02,0.945-0.031,1.417-0.049c0.125-0.006,0.232,0.02,0.338,0.092
		c0.741,0.504,1.486,1.004,2.228,1.506c0.237,0.16,0.241,0.279,0.014,0.461c-0.314,0.248-0.679,0.426-0.992,0.682
		c-0.357,0.295-0.605,0.664-0.838,1.051c-0.008,0.014-0.013,0.027-0.019,0.039c-0.786,1.607-0.786,1.607-0.746,3.396
		c0.003,0.107,0.024,0.209,0.057,0.311c0.221,0.686,0.441,1.371,0.663,2.055c0.088,0.273,0.223,0.5,0.524,0.588
		c0.165,0.049,0.219,0.213,0.275,0.355c0.28,0.709,0.283,1.447,0.222,2.191c-0.01,0.121-0.094,0.189-0.178,0.25
		c-0.547,0.381-0.757,0.922-0.751,1.568c0.003,0.34,0.005,0.68-0.02,1.018c-0.021,0.299,0.032,0.559,0.247,0.775
		c0.105,0.105,0.089,0.191-0.037,0.268c-0.187,0.115-0.309,0.285-0.401,0.48c-0.045,0.096-0.092,0.191-0.146,0.281
		c-0.734,1.199-1.194,2.504-1.519,3.863c-0.091,0.377-0.054,0.715,0.227,0.998c0.076,0.08,0.099,0.168,0.108,0.268
		c0.121,1.234,0.13,2.467-0.006,3.699c-0.199,1.811-0.326,3.625-0.262,5.451c0.036,1.057-0.001,2.113-0.116,3.17
		c-0.058,0.533-0.058,1.082-0.098,1.623c-0.058,0.805-0.263,1.586-0.403,2.377c-0.169,0.945-0.335,1.891-0.532,2.83
		c-0.215,1.023-0.565,2.01-0.815,3.023c-0.358,1.455-0.975,2.813-1.553,4.184c-0.185,0.434-0.471,0.859-0.973,1.072
		c-0.278,0.119-0.493,0.348-0.672,0.621c-0.566,0.871-0.969,1.818-1.332,2.781c-0.211,0.563-0.27,1.168-0.384,1.756
		c-0.18,0.928-0.34,1.861-0.531,2.787c-0.117,0.563-0.077,1.109,0.09,1.65c0.443,1.432,0.715,2.9,0.932,4.383
		c0.022,0.148,0.012,0.293-0.033,0.438c-0.2,0.654-0.397,1.311-0.59,1.969c-0.038,0.131-0.102,0.193-0.242,0.215
		c-0.552,0.086-1.1,0.188-1.65,0.277c-0.337,0.055-0.514-0.066-0.608-0.398c-0.158-0.557-0.313-1.113-0.473-1.67
		C50.963,82.188,50.91,81.883,50.928,81.572z"/>
</g>
</svg>
