<?xml version="1.0" encoding="utf-8"?>
<!-- Generator: Adobe Illustrator 16.0.0, SVG Export Plug-In . SVG Version: 6.00 Build 0)  -->
<!DOCTYPE svg PUBLIC "-//W3C//DTD SVG 1.1//EN" "http://www.w3.org/Graphics/SVG/1.1/DTD/svg11.dtd">
<svg version="1.1" id="圖層_1" xmlns="http://www.w3.org/2000/svg" xmlns:xlink="http://www.w3.org/1999/xlink" x="0px" y="0px"
	 width="100px" height="100px" viewBox="0 0 100 100" enable-background="new 0 0 100 100" xml:space="preserve">
<g>
	<circle fill="none" stroke="#E7C46E" stroke-width="2" stroke-miterlimit="10" cx="50.456" cy="50.013" r="45"/>
	<circle fill="none" stroke="#E7C46E" stroke-miterlimit="10" cx="50.456" cy="50.013" r="40.667"/>
	<g>
		<path fill-rule="evenodd" clip-rule="evenodd" fill="#E7C46E" d="M83.785,40.363c0,0.311,0,0.624,0,0.936
			c-0.208,0.281-0.218,0.619-0.281,0.945c-0.631,3.235-2.482,5.465-5.571,6.61c-0.561,0.207-0.725,0.439-0.723,1.022
			c0.022,7.624,0.024,15.248,0.011,22.872c-0.008,3.853-2.92,6.786-6.766,6.789c-13.753,0.014-27.507,0.005-41.261,0.007
			c-1.065,0-2.09-0.2-3.031-0.688c-2.512-1.298-3.758-3.397-3.763-6.209c-0.014-7.58-0.008-15.159,0.003-22.737
			c0.001-0.463-0.084-0.679-0.603-0.805c-2.018-0.494-3.634-1.617-4.872-3.297c-0.882-1.191-1.322-2.553-1.626-3.975
			c0-0.445,0-0.892,0-1.338c0.174-0.457,0.393-0.885,0.686-1.283c4.304-5.822,8.612-11.642,12.89-17.483
			c0.672-0.918,1.475-1.302,2.603-1.3c12.281,0.02,24.563,0.021,36.843-0.001c1.165-0.002,1.967,0.414,2.628,1.371
			c3.512,5.073,7.063,10.12,10.591,15.183C82.315,38.091,83.169,39.149,83.785,40.363z M49.921,24.708
			c-5.771,0-11.543,0.007-17.314-0.009c-0.445-0.002-0.725,0.128-0.991,0.491C27.739,30.469,23.854,35.74,19.952,41
			c-0.27,0.364-0.325,0.689-0.203,1.1c0.732,2.467,3.623,3.738,5.93,2.593c1.617-0.803,2.337-2.167,2.46-3.922
			c0.084-1.227,0.966-2.037,2.133-2.027c1.274,0.011,2.01,0.878,2.149,2.476c0.147,1.682,1.034,2.887,2.562,3.543
			c1.502,0.647,2.962,0.447,4.282-0.546c1.201-0.904,1.593-2.185,1.713-3.617c0.091-1.076,0.959-1.83,2.018-1.854
			c1.104-0.026,1.979,0.697,2.15,1.785c0.042,0.265,0.077,0.528,0.103,0.797c0.165,1.679,1.322,3.084,2.961,3.591
			c1.629,0.505,3.392-0.016,4.486-1.275c0.759-0.873,0.968-1.913,1.095-3.016c0.133-1.168,1.005-1.899,2.127-1.883
			c1.111,0.015,1.941,0.802,2.068,1.958c0.024,0.222,0.057,0.441,0.085,0.662c0.274,2.168,2.109,3.797,4.241,3.769
			c2.244-0.032,4.055-1.755,4.225-4.016c0.019-0.244,0.042-0.49,0.098-0.729c0.239-1.047,1.122-1.696,2.205-1.642
			c1.005,0.053,1.837,0.837,1.964,1.859c0.037,0.286,0.047,0.578,0.091,0.863c0.312,2.049,1.858,3.45,4.008,3.642
			c1.825,0.162,3.689-1.141,4.279-2.984c0.165-0.511,0.139-0.936-0.202-1.417c-3.62-5.133-7.215-10.283-10.8-15.44
			c-0.284-0.406-0.565-0.574-1.077-0.572C61.375,24.717,55.648,24.708,49.921,24.708z M26.662,61.181
			c0,3.746-0.001,7.49,0.001,11.235c0,1.994,0.856,2.861,2.835,2.861c7.4,0.001,14.8,0.001,22.2-0.003
			c0.94,0,0.868,0.147,0.869-0.841c0.002-6.307,0-12.616,0.001-18.924c0-1.926,0.753-2.685,2.658-2.686
			c4.013-0.001,8.024-0.001,12.037,0c1.91,0.001,2.684,0.768,2.686,2.668c0.003,3.546,0.001,7.09,0.001,10.634
			c0,2.851,0.01,5.705-0.009,8.559c-0.003,0.456,0.111,0.617,0.591,0.603c1.414-0.047,2.417-1.026,2.419-2.481
			c0.008-7.734,0.001-15.469,0.013-23.203c0-0.371-0.099-0.558-0.464-0.665c-1.326-0.396-2.48-1.098-3.435-2.1
			c-0.283-0.297-0.434-0.292-0.731,0c-3.477,3.41-8.592,3.405-12.106-0.005c-0.252-0.244-0.379-0.312-0.673-0.028
			c-3.607,3.451-8.586,3.458-12.156,0.017c-0.266-0.257-0.392-0.275-0.669-0.007c-3.563,3.445-8.542,3.442-12.155-0.004
			c-0.283-0.271-0.424-0.256-0.676,0.013c-0.757,0.804-1.647,1.44-2.683,1.827c-0.469,0.175-0.564,0.441-0.563,0.896
			C26.669,53.425,26.662,57.303,26.662,61.181z M65.702,66.195c0-2.828-0.012-5.657,0.012-8.487c0.004-0.505-0.141-0.635-0.639-0.63
			c-2.562,0.024-5.123,0.023-7.686,0.002c-0.478-0.006-0.593,0.149-0.592,0.606c0.015,5.658,0.013,11.316,0.002,16.976
			c-0.001,0.427,0.057,0.632,0.569,0.627c2.583-0.027,5.168-0.022,7.752-0.002c0.478,0.005,0.594-0.146,0.591-0.604
			C65.692,71.854,65.702,69.024,65.702,66.195z"/>
		<path fill-rule="evenodd" clip-rule="evenodd" fill="#E7C46E" d="M39.377,70.413c-2.25,0-4.501,0.003-6.752-0.002
			c-1.816-0.004-2.602-0.794-2.603-2.612c-0.001-4.124-0.001-8.247,0-12.369c0.001-1.81,0.798-2.604,2.613-2.605
			c4.524-0.001,9.048-0.001,13.571,0.001c1.812,0,2.599,0.791,2.601,2.617c0.004,4.121,0.005,8.244,0,12.367
			c-0.002,1.821-0.785,2.598-2.611,2.602C43.923,70.415,41.65,70.413,39.377,70.413z M39.43,57.09c-1.538,0-3.076,0.013-4.612-0.009
			c-0.4-0.006-0.538,0.092-0.535,0.518c0.019,2.673,0.016,5.348,0.002,8.021c-0.001,0.388,0.082,0.549,0.512,0.545
			c3.075-0.017,6.15-0.016,9.226-0.002c0.395,0.001,0.548-0.103,0.545-0.523c-0.015-2.673-0.018-5.349,0.003-8.021
			c0.004-0.478-0.194-0.54-0.595-0.536C42.46,57.099,40.944,57.09,39.43,57.09z"/>
	</g>
</g>
</svg>
